<?xml version="1.0" encoding="UTF-8"?><svg id="Layer_2" xmlns="http://www.w3.org/2000/svg" viewBox="0 0 266.5 124.73"><defs><style>.cls-1{fill:#fff;}</style></defs><g id="Layer_1-2"><path class="cls-1" d="m28.6,85.35c-3.2-3.28-7.11-4.94-11.63-4.94-2.54,0-4.91.53-7.05,1.58-1.78.88-3.44,2.14-4.93,3.75v-16.56H0v44.15h4.98v-4.8c1.41,1.68,3,2.99,4.74,3.91,2.12,1.12,4.52,1.69,7.12,1.69,4.54,0,8.48-1.66,11.7-4.93,3.23-3.27,4.86-7.27,4.86-11.88s-1.62-8.7-4.81-11.98Zm-1.84,17.92c-1.07,1.9-2.52,3.39-4.32,4.44-1.8,1.05-3.79,1.58-5.92,1.58-3.31,0-6.14-1.17-8.4-3.49-2.27-2.32-3.42-5.25-3.42-8.71,0-2.27.51-4.34,1.52-6.15,1.01-1.8,2.47-3.26,4.36-4.32,1.89-1.07,3.91-1.61,6-1.61s4.01.54,5.82,1.61c1.81,1.07,3.27,2.58,4.35,4.5,1.08,1.92,1.62,3.97,1.62,6.09s-.54,4.16-1.61,6.06Z"/><path class="cls-1" d="m67.45,81.21v15.78c0,4.35-.52,7.68-1.55,9.91-1.04,2.25-2.63,4.04-4.71,5.32-2.08,1.27-4.72,1.92-7.83,1.92s-5.75-.65-7.85-1.92c-2.11-1.28-3.7-3.08-4.74-5.37-1.02-2.26-1.55-5.67-1.55-10.15v-15.49h4.98v15.03c0,3.49.19,5.91.56,7.19.53,1.79,1.58,3.22,3.09,4.26,1.53,1.05,3.38,1.58,5.5,1.58s3.95-.51,5.41-1.53c1.46-1.01,2.48-2.36,3.04-4.01.38-1.14.58-3.67.58-7.49v-15.03h5.07Z"/><path class="cls-1" d="m47.7,69.39c.92,0,1.7.32,2.35.97.65.65.97,1.43.97,2.35s-.32,1.7-.97,2.35c-.65.65-1.43.97-2.35.97s-1.7-.32-2.35-.97c-.65-.65-.97-1.43-.97-2.35s.32-1.7.97-2.35,1.43-.97,2.35-.97Z"/><path class="cls-1" d="m59.38,69.39c.92,0,1.7.32,2.35.97.65.65.97,1.43.97,2.35s-.32,1.7-.97,2.35c-.65.65-1.43.97-2.35.97s-1.7-.32-2.35-.97c-.65-.65-.97-1.43-.97-2.35s.32-1.7.97-2.35,1.43-.97,2.35-.97Z"/><polygon class="cls-1" points="102.87 81.21 83.86 124.73 78.56 124.73 84.77 110.49 71.77 81.21 77.07 81.21 77.2 81.5 87.45 104.47 97.53 81.21 102.87 81.21"/><path class="cls-1" d="m134.53,81.21v15.78c0,4.35-.52,7.68-1.55,9.91-1.04,2.25-2.63,4.04-4.71,5.32-2.08,1.27-4.72,1.92-7.83,1.92s-5.76-.65-7.85-1.92c-2.11-1.28-3.7-3.08-4.74-5.37-1.02-2.26-1.55-5.67-1.55-10.15v-15.49h4.98v15.03c0,3.49.19,5.91.56,7.19.54,1.79,1.58,3.22,3.09,4.26,1.52,1.05,3.37,1.58,5.5,1.58s3.95-.51,5.41-1.53c1.46-1.01,2.48-2.36,3.04-4.01.38-1.15.58-3.67.58-7.49v-15.03h5.07Z"/><path class="cls-1" d="m114.77,69.39c.92,0,1.7.32,2.35.97.65.65.97,1.43.97,2.35s-.32,1.7-.97,2.35c-.65.65-1.43.97-2.35.97s-1.7-.32-2.35-.97c-.65-.65-.97-1.43-.97-2.35s.32-1.7.97-2.35,1.43-.97,2.35-.97Z"/><path class="cls-1" d="m126.45,69.39c.92,0,1.7.32,2.35.97.65.65.97,1.43.97,2.35s-.32,1.7-.97,2.35c-.65.65-1.43.97-2.35.97s-1.7-.32-2.35-.97c-.65-.65-.97-1.43-.97-2.35s.32-1.7.97-2.35,1.43-.97,2.35-.97Z"/><path class="cls-1" d="m159.2,109.2v4.89l-.54-.06c-.08,0-1.94-.21-2.82-.42-1.31-.32-2.51-.8-3.56-1.44-1.05-.64-1.99-1.41-2.77-2.31-.79-.89-1.45-1.92-1.97-3.06-.52-1.14-.91-2.58-1.17-4.27-.25-1.67-.38-3.65-.38-5.88v-11.05h-5.47v-4.44h5.47v-11.57h4.98v11.57h6.35v4.44h-6.36v10.59c0,1.75.05,3.26.14,4.46.09,1.18.23,2.1.41,2.74.27.89.66,1.7,1.18,2.41.51.71,1.16,1.32,1.91,1.84.76.52,1.61.92,2.51,1.18.51.15,1.65.32,1.66.33l.41.06Z"/><path class="cls-1" d="m188.62,102.26c-1.19,1.98-2.31,3.43-3.31,4.3-1,.87-2.24,1.58-3.67,2.11-1.44.53-2.94.8-4.46.8-3.13,0-5.8-1.12-7.93-3.32-2.03-2.11-3.15-4.82-3.31-8.07h28.01v-.49c-.04-4.35-1.24-8.03-3.55-10.95-3.25-4.13-7.66-6.23-13.11-6.23s-9.58,2.05-12.74,6.08c-2.48,3.17-3.74,6.82-3.74,10.87,0,4.3,1.49,8.21,4.42,11.61,2.95,3.43,7.08,5.17,12.29,5.17,2.34,0,4.47-.36,6.34-1.08,1.86-.72,3.57-1.78,5.06-3.15,1.49-1.37,2.82-3.19,3.94-5.41l.22-.43-4.21-2.21-.24.4Zm-18.83-14.21c2.09-1.87,4.64-2.82,7.56-2.82,1.77,0,3.49.38,5.1,1.13,1.61.75,2.91,1.74,3.88,2.95.88,1.1,1.58,2.55,2.08,4.33h-21.92c.78-2.45,1.9-4.33,3.31-5.59Z"/><path class="cls-1" d="m231.83,106.44l-.27.41c-1.53,2.31-3.61,4.12-6.19,5.39-2.56,1.26-5.52,1.9-8.79,1.9-5.03,0-9.27-1.63-12.59-4.83-3.33-3.21-5.02-7.17-5.02-11.77,0-3.09.79-6,2.34-8.65,1.56-2.65,3.72-4.75,6.44-6.24,2.71-1.48,5.79-2.24,9.14-2.24,2.1,0,4.16.33,6.12.97,1.96.64,3.65,1.5,5.02,2.54,1.38,1.05,2.57,2.39,3.53,4l.24.41-3.96,2.46-.27-.36c-2.64-3.5-6.29-5.28-10.85-5.28-3.65,0-6.71,1.19-9.11,3.52-2.4,2.33-3.61,5.21-3.61,8.54,0,2.17.56,4.24,1.66,6.16,1.1,1.91,2.64,3.42,4.56,4.48,1.93,1.06,4.13,1.6,6.53,1.6,4.4,0,8.04-1.78,10.83-5.28l.28-.35,3.96,2.6Z"/><path class="cls-1" d="m266.5,96.81v16.52h-4.98v-15.35c0-3.53-.14-5.91-.41-7.07-.47-1.94-1.32-3.42-2.53-4.38s-2.84-1.45-4.84-1.45c-2.3,0-4.38.77-6.2,2.29-1.83,1.53-3.05,3.45-3.63,5.7-.37,1.48-.56,4.29-.56,8.35v11.91h-4.99v-44.15h4.99v16.71c1.42-1.65,2.98-2.94,4.63-3.84,2.01-1.09,4.22-1.65,6.56-1.65s4.59.63,6.47,1.86c1.88,1.23,3.28,2.91,4.17,4.98.88,2.05,1.33,5.27,1.33,9.57Z"/><path class="cls-1" d="m114.66,20.51c-.52,0-.94-.42-.94-.94s.42-.93.94-.93.93.42.93.93-.42.94-.93.94Z"/><path class="cls-1" d="m230.99,40.85c-1.97-1.06-3.92-2.12-5.88-3.13-1.96-1.02-3.93-2-5.9-2.97-3.95-1.92-7.92-3.72-11.92-5.41-8-3.37-16.12-6.26-24.34-8.6-10.09-2.91-20.35-4.97-30.66-6.15,5.01,4.98,8.1,11.87,8.1,19.49,0,15.18-12.31,27.49-27.49,27.49-9.45,0-17.78-4.77-22.73-12.02h3.14c.3.42.8.7,1.35.7.92,0,1.67-.75,1.67-1.68s-.75-1.67-1.67-1.67c-.56,0-1.05.27-1.36.7h-4.35c-.54-.95-1.02-1.94-1.45-2.96h11.8l7.13,5.18s0,.1,0,.15c0,.92.75,1.67,1.67,1.67s1.67-.75,1.67-1.67-.75-1.67-1.67-1.67c-.15,0-.29.02-.42.06l.02-.03-7.76-5.63h-13.16c-.31-.93-.56-1.88-.77-2.85h15.03l5.86,4.02h11.52c.3.46.82.77,1.4.77.92,0,1.67-.75,1.67-1.67s-.75-1.67-1.67-1.67c-.54,0-1.02.26-1.32.66v-.03h-10.99l-5.86-4.01h-15.98c-.13-.92-.21-1.86-.24-2.8h26.12c.3.42.8.7,1.36.7.92,0,1.67-.75,1.67-1.67s-.75-1.67-1.67-1.67c-.56,0-1.05.27-1.35.69h-26.12c.03-.97.12-1.92.25-2.86h16l5.86-4.02h10.94c.3.42.8.69,1.35.69.92,0,1.67-.75,1.67-1.67s-.75-1.67-1.67-1.67c-.56,0-1.05.27-1.35.69h-11.54l-5.86,4.02h-15.05c.21-.97.46-1.93.78-2.86h13.16l7.7-5.58c.14.04.29.06.45.06.92,0,1.67-.75,1.67-1.67s-.75-1.67-1.67-1.67-1.67.75-1.67,1.67c0,.02,0,.05,0,.08l-7.12,5.16h-11.79c.42-1.02.91-2,1.45-2.95h4.35c.3.42.8.7,1.36.7.92,0,1.67-.75,1.67-1.67s-.75-1.67-1.67-1.67c-.56,0-1.05.27-1.35.69h-3.13c1.05-1.53,2.24-2.94,3.56-4.23l-3.04.34-3.14.42c-4.18.61-8.36,1.3-12.51,2.2-4.15.89-8.27,1.92-12.38,3.09-8.21,2.34-16.3,5.28-24.27,8.7-3.99,1.72-7.93,3.57-11.86,5.53-1.95.99-3.92,1.99-5.86,3.04-1.96,1.03-3.89,2.11-5.86,3.17,3-3.31,6.25-6.4,9.67-9.31,3.42-2.9,7.01-5.64,10.75-8.18,3.74-2.53,7.62-4.88,11.61-7.04,1.01-.52,2-1.07,3.02-1.58l3.06-1.51,3.11-1.42c1.04-.46,2.09-.9,3.14-1.34C96.04,3.46,114.48-.07,132.86,0c18.39.09,36.75,3.77,53.58,10.77,4.21,1.74,8.33,3.67,12.33,5.81,4,2.13,7.89,4.45,11.65,6.95,3.75,2.51,7.37,5.21,10.82,8.07,3.45,2.88,6.74,5.92,9.75,9.24Z"/><path class="cls-1" d="m115.59,48.58c0,.52-.42.94-.93.94s-.94-.42-.94-.94.42-.94.94-.94.93.42.93.94Z"/><path class="cls-1" d="m129.02,18.27c0,.52-.42.94-.94.94s-.93-.42-.93-.94.42-.93.93-.93.94.42.94.93Z"/><path class="cls-1" d="m129.02,49.97c0,.52-.42.94-.94.94s-.93-.42-.93-.94.42-.94.93-.94.94.42.94.94Z"/><path class="cls-1" d="m133.82,34.11c0,.52-.42.94-.93.94s-.94-.42-.94-.94.42-.94.94-.94.93.42.93.94Z"/><path class="cls-1" d="m140.74,25.28c0,.51-.42.94-.94.94s-.93-.42-.93-.94.42-.93.93-.93.94.42.94.93Z"/><path class="cls-1" d="m140.74,42.95c0,.52-.42.94-.94.94s-.93-.42-.93-.94.42-.94.93-.94.94.42.94.94Z"/><path class="cls-1" d="m105.4,34.09c0,.33,0,.66.02.99h-.02v-.99Z"/></g></svg>