<svg xmlns="http://www.w3.org/2000/svg" width="99" height="129" viewBox="0 0 99 129" version="1.1">
	<path d="M 20 6.513 L 20 13.512 51.256 44.756 C 68.447 61.940, 82.847 76, 83.256 76 C 83.665 76, 84 63.946, 84 49.212 L 84 22.425 79 17.500 L 74 12.575 74 33.031 L 74 53.486 47 26.500 L 20 -0.486 20 6.513 M 20 53.048 L 20 80.584 24.288 84.792 C 26.646 87.106, 28.896 89, 29.288 89 C 29.680 89, 30 80.116, 30 69.257 L 30 49.514 57 76.500 L 84 103.486 84 96.487 L 84 89.488 52 57.500 L 20 25.512 20 53.048 M 10.864 110.636 C 9.311 113.195, 9.401 113.491, 13.982 120.886 C 18.065 127.476, 19.123 128.542, 21.849 128.813 C 23.582 128.986, 25 128.808, 25 128.417 C 25 127.761, 13.039 108, 12.641 108 C 12.543 108, 11.744 109.186, 10.864 110.636 M 27.695 108.639 C 27.313 109.021, 27 110.507, 27 111.942 C 27 115.711, 40.457 129, 44.274 129 L 47 129 47 118.500 C 47 112.725, 46.628 108, 46.174 108 C 43.938 108, 41 112.846, 41 116.536 L 41 120.442 34.695 114.193 C 31.227 110.756, 28.077 108.256, 27.695 108.639 M 52.667 108.667 C 52.300 109.033, 52 110.383, 52 111.667 C 52 113.839, 52.394 114, 57.725 114 L 63.450 114 56 121.500 L 48.550 129 52.544 129 C 56.265 129, 57.201 128.334, 66.269 119.232 C 71.621 113.860, 76 109.135, 76 108.732 C 76 107.817, 53.579 107.754, 52.667 108.667 M 78.434 109.106 C 78.058 109.715, 79.157 111.618, 80.875 113.337 L 84 116.462 84 112.231 C 84 108.412, 83.762 108, 81.559 108 C 80.216 108, 78.810 108.498, 78.434 109.106 M 93.709 108.624 C 93.319 109.014, 93 112.146, 93 115.583 C 93 119.683, 92.570 121.984, 91.750 122.271 C 90.854 122.584, 91.065 123.387, 92.493 125.104 L 94.486 127.500 91.928 125.250 C 90.522 124.013, 88.603 123, 87.664 123 C 86.725 123, 85.431 121.763, 84.788 120.250 C 83.461 117.131, 80.064 113, 78.826 113 C 77.518 113, 77.865 118.741, 79.394 122.401 C 82.100 128.878, 88.514 130.813, 94.723 127.027 C 98.507 124.720, 99.220 122.523, 98.806 114.458 C 98.543 109.343, 98.211 108.459, 96.459 108.208 C 95.336 108.047, 94.099 108.235, 93.709 108.624 M 4.412 121.250 C 2.359 124.688, 0.500 127.838, 0.281 128.250 C 0.061 128.662, 1.374 129, 3.198 129 C 6.077 129, 6.887 128.384, 9.335 124.330 C 11.796 120.257, 11.997 119.362, 10.909 117.330 C 10.223 116.049, 9.321 115, 8.903 115 C 8.486 115, 6.465 117.813, 4.412 121.250 M 27 123 L 27 129 30 129 C 32.811 129, 33 128.758, 33 125.174 C 33 122.468, 32.323 120.712, 30.686 119.174 C 29.413 117.978, 28.063 117, 27.686 117 C 27.308 117, 27 119.700, 27 123 M 60.543 125.955 L 57.626 129 65.379 129 L 73.133 129 72.816 126.250 C 72.529 123.755, 72.081 123.473, 67.981 123.205 C 64.053 122.948, 63.079 123.308, 60.543 125.955" stroke="none" fill="#000000" fill-rule="evenodd"/>
</svg>